<?xml version="1.0" encoding="UTF-8" standalone="no" ?>
<!DOCTYPE svg PUBLIC "-//W3C//DTD SVG 1.1//EN" "http://www.w3.org/Graphics/SVG/1.1/DTD/svg11.dtd">
<svg xmlns="http://www.w3.org/2000/svg" xmlns:xlink="http://www.w3.org/1999/xlink" version="1.1" width="108" height="32" viewBox="0 0 108 32" xml:space="preserve">
<desc>Created with Fabric.js 5.2.4</desc>
<defs>
</defs>
<g transform="matrix(1 0 0 1 54 16)" id="da4aa8a3-59fb-426e-89cc-c79cf2d6b50d"  >
<rect style="stroke: none; stroke-width: 1; stroke-dasharray: none; stroke-linecap: butt; stroke-dashoffset: 0; stroke-linejoin: miter; stroke-miterlimit: 4; fill: rgb(255,255,255); fill-rule: nonzero; opacity: 1; visibility: hidden;" vector-effect="non-scaling-stroke"  x="-54" y="-16" rx="0" ry="0" width="108" height="32" />
</g>
<g transform="matrix(Infinity NaN NaN Infinity 0 0)" id="a8e93274-227a-47cd-8ecd-e9ed4894e98e"  >
</g>
<g transform="matrix(0.49 0 0 0.49 54 16)"  >
<g style="" vector-effect="non-scaling-stroke"   >
		<g transform="matrix(1 0 0 1 -54.99 -0.17)"  >
<path style="stroke: none; stroke-width: 1; stroke-dasharray: none; stroke-linecap: butt; stroke-dashoffset: 0; stroke-linejoin: miter; stroke-miterlimit: 4; fill: rgb(255,255,255); fill-rule: evenodd; opacity: 1;" vector-effect="non-scaling-stroke"  transform=" translate(-28, -24)" d="M 0 14.13 L 0 14.253 L 27.95 27.383000000000003 L 56 14.209 L 56 14.176 L 27.95 1 L 0 14.13 z M 10.077 14.192 L 27.95 5.795 L 45.827 14.192 L 27.95 22.588 L 10.076 14.192 z M 27.95 32.483 L 0 19.55 L 0 24.334 L 27.95 37.298 L 56 24.289 L 56 19.505000000000003 L 27.95 32.483 z M 27.95 42.18599999999999 L 0 29.25 L 0 34.033 L 27.95 47 L 56 33.99 L 56 29.206000000000003 L 27.95 42.18600000000001 z" stroke-linecap="round" />
</g>
		<g transform="matrix(1 0 0 1 36.01 0)"  >
<path style="stroke: none; stroke-width: 1; stroke-dasharray: none; stroke-linecap: butt; stroke-dashoffset: 0; stroke-linejoin: miter; stroke-miterlimit: 4; fill: rgb(255,255,255); fill-rule: evenodd; opacity: 1;" vector-effect="non-scaling-stroke"  transform=" translate(-47, -24.17)" d="M 87.56 24.152 C 87.5764973712615 22.08676645350621 86.80347963650053 20.093232054698756 85.399 18.579 C 84.7384098821691 17.870822790950886 83.94279109123237 17.301989356234152 83.059 16.906 C 82.16293332881618 16.504090353275185 81.19105526524066 16.29914343530716 80.209 16.305 C 79.199 16.305 78.248 16.505 77.357 16.906 C 76.47318192195121 17.301942326649474 75.67755434662404 17.870782041829973 75.017 18.579000000000004 C 73.61282116250153 20.093747655020376 72.84017828977073 22.08759551270623 72.857 24.153 C 72.84043380022295 26.218059927087083 73.61305900606648 28.211504497534264 75.017 29.726 C 75.6776473036383 30.433858065416782 76.47326843367634 31.00235316346106 77.357 31.397999999999996 C 78.25329758715615 31.800393661621218 79.22553488639501 32.005685437889824 80.208 32 C 81.218 32 82.16799999999999 31.8 83.06 31.398 C 83.94334692629589 31.002191213173614 84.73861026386152 30.433708827363557 85.399 29.726 C 86.80335360162249 28.21136158260254 87.57602444821319 26.217441536817105 87.559 24.152 z M 93.97500000000001 24.152 C 93.97500000000001 26.084 93.61800000000001 27.875 92.90500000000002 29.525000000000002 C 92.22044327847883 31.133570198810588 91.22080341525013 32.58882823099386 89.96500000000002 33.805 C 88.71800000000002 35.01 87.25500000000002 35.961 85.57700000000001 36.659 C 83.89900000000002 37.358 82.10900000000001 37.707 80.20800000000001 37.707 C 78.308 37.707 76.525 37.358000000000004 74.86200000000001 36.659 C 73.2374322677777 35.985917371088924 71.75575524297504 35.009897416134166 70.49600000000001 33.783 C 69.24296402211147 32.556011743941774 68.24394094511611 31.09417593535878 67.55600000000001 29.481 C 66.84300000000002 27.831000000000003 66.48600000000002 26.055 66.48600000000002 24.152 C 66.48600000000002 22.279 66.85000000000002 20.518 67.57800000000002 18.868000000000002 C 68.2825195929435 17.251758579021644 69.28767263024262 15.78407225683436 70.54000000000002 14.543000000000003 C 71.79514129042059 13.304397242683518 73.2780542079916 12.32031626372295 74.90700000000001 11.645000000000008 C 76.58573295556508 10.943358055261603 78.38856476682668 10.586940824889565 80.20800000000003 10.597000000000001 C 82.10900000000002 10.597000000000003 83.89800000000002 10.947000000000003 85.57700000000003 11.645000000000003 C 87.25500000000002 12.343000000000004 88.71700000000003 13.295000000000003 89.96500000000003 14.499000000000002 C 91.21300000000004 15.703000000000003 92.19300000000003 17.137 92.90500000000003 18.801000000000002 C 93.61800000000002 20.466 93.97500000000002 22.25 93.97500000000002 24.152 z M 64.258 36.905 C 63.70833192016981 37.15813439631459 63.13348082806052 37.352544678194114 62.54299999999999 37.485 C 61.904999999999994 37.633 61.242999999999995 37.707 60.56099999999999 37.707 C 59.63437742161201 37.71030914179381 58.711932314502825 37.58271545727031 57.82099999999999 37.328 C 56.975568514158844 37.09203266273484 56.192168707289 36.673536731047506 55.52599999999999 36.102000000000004 C 54.87299999999999 35.537000000000006 54.35299999999999 34.80200000000001 53.96599999999999 33.895 C 53.58099999999999 32.988 53.387999999999984 31.895000000000003 53.387999999999984 30.618000000000002 L 53.387999999999984 0.029 L 59.93699999999998 0.029 L 59.93699999999998 29.503 C 59.93699999999998 30.573 60.15199999999999 31.309 60.582999999999984 31.71 C 61.012999999999984 32.111000000000004 61.52599999999998 32.312 62.11999999999998 32.312 C 62.86199999999998 32.312 63.57499999999998 32.089 64.25799999999998 31.642999999999997 L 64.25799999999998 36.904999999999994 z M 50.492 11.22 L 38.908 41.854 C 38.047000000000004 44.143 36.918 45.793 35.522 46.804 C 34.126 47.814 32.461999999999996 48.319 30.531999999999996 48.319 C 30.234999999999996 48.319 29.908999999999995 48.297000000000004 29.551999999999996 48.253 C 29.20599998307834 48.21038626620977 28.863469075991706 48.14321679077131 28.526999999999997 48.052 L 26.388999999999996 42.077 C 26.88959142085524 42.31309551951574 27.412079953853272 42.499650720079785 27.948999999999998 42.634 C 28.482999999999993 42.768 28.987999999999996 42.835 29.462999999999994 42.835 C 30.472999999999995 42.835 31.392999999999994 42.605000000000004 32.224999999999994 42.144 C 33.056999999999995 41.684 33.69499999999999 40.829 34.14099999999999 39.58 L 35.03199999999999 36.994 L 25.096999999999987 11.221 L 32.091999999999985 11.221 L 38.01699999999998 27.809 L 43.58699999999998 11.221 L 50.49199999999998 11.221 z M 23.538 7.342 L 6.786 7.342 L 6.786 15.636 L 23.314999999999998 15.636 L 23.314999999999998 21.253999999999998 L 6.785 21.253999999999998 L 6.785 37.038 L 0.015 37.038 L 0.015 1.412 L 23.539 1.412 L 23.539 7.342 z" stroke-linecap="round" />
</g>
</g>
</g>
</svg>